<mxfile host="Electron" modified="2023-05-11T09:07:25.172Z" agent="Mozilla/5.0 (X11; Linux x86_64) AppleWebKit/537.36 (KHTML, like Gecko) draw.io/21.2.8 Chrome/112.0.5615.165 Electron/24.2.0 Safari/537.36" etag="ei_EK1nrxmMYbg_0GY1A" version="21.2.8" type="device">
  <diagram name="Page-1" id="Mad-xUG25EJR8XkOBYi5">
    <mxGraphModel dx="1195" dy="703" grid="1" gridSize="10" guides="1" tooltips="1" connect="1" arrows="1" fold="1" page="1" pageScale="1" pageWidth="850" pageHeight="1100" math="0" shadow="0">
      <root>
        <mxCell id="0" />
        <mxCell id="1" parent="0" />
        <mxCell id="qCzBzttJJir__ocIeJpY-1" value="&lt;b&gt;&lt;font style=&quot;font-size: 15px;&quot;&gt;k8s - Cluster 1&lt;/font&gt;&lt;/b&gt;" style="rounded=0;whiteSpace=wrap;html=1;labelPosition=center;verticalLabelPosition=top;align=center;verticalAlign=bottom;dashed=1;fillColor=#dae8fc;strokeColor=#6c8ebf;" vertex="1" parent="1">
          <mxGeometry x="30" y="90" width="470" height="220" as="geometry" />
        </mxCell>
        <mxCell id="qCzBzttJJir__ocIeJpY-4" value="Node 1" style="rounded=1;whiteSpace=wrap;html=1;fillColor=#e1d5e7;strokeColor=#9673a6;" vertex="1" parent="1">
          <mxGeometry x="70" y="110" width="80" height="60" as="geometry" />
        </mxCell>
        <mxCell id="qCzBzttJJir__ocIeJpY-5" value="Node 2" style="rounded=1;whiteSpace=wrap;html=1;fillColor=#e1d5e7;strokeColor=#9673a6;" vertex="1" parent="1">
          <mxGeometry x="230" y="110" width="80" height="60" as="geometry" />
        </mxCell>
        <mxCell id="qCzBzttJJir__ocIeJpY-6" value="Node 3" style="rounded=1;whiteSpace=wrap;html=1;fillColor=#e1d5e7;strokeColor=#9673a6;" vertex="1" parent="1">
          <mxGeometry x="390" y="110" width="80" height="60" as="geometry" />
        </mxCell>
        <mxCell id="qCzBzttJJir__ocIeJpY-12" value="" style="endArrow=none;html=1;rounded=0;entryX=0.5;entryY=1;entryDx=0;entryDy=0;" edge="1" parent="1" source="qCzBzttJJir__ocIeJpY-7" target="qCzBzttJJir__ocIeJpY-6">
          <mxGeometry width="50" height="50" relative="1" as="geometry">
            <mxPoint x="320" y="430" as="sourcePoint" />
            <mxPoint x="370" y="380" as="targetPoint" />
          </mxGeometry>
        </mxCell>
        <mxCell id="qCzBzttJJir__ocIeJpY-7" value="" style="sketch=0;outlineConnect=0;fontColor=#232F3E;gradientColor=none;strokeColor=#232F3E;fillColor=none;dashed=0;verticalLabelPosition=bottom;verticalAlign=top;align=center;html=1;fontSize=12;fontStyle=0;aspect=fixed;shape=mxgraph.aws4.resourceIcon;resIcon=mxgraph.aws4.container_1;fillStyle=auto;" vertex="1" parent="1">
          <mxGeometry x="420" y="210" width="60" height="60" as="geometry" />
        </mxCell>
        <mxCell id="qCzBzttJJir__ocIeJpY-8" value="" style="sketch=0;outlineConnect=0;fontColor=#232F3E;gradientColor=none;strokeColor=#232F3E;fillColor=none;dashed=0;verticalLabelPosition=bottom;verticalAlign=top;align=center;html=1;fontSize=12;fontStyle=0;aspect=fixed;shape=mxgraph.aws4.resourceIcon;resIcon=mxgraph.aws4.container_1;" vertex="1" parent="1">
          <mxGeometry x="300" y="210" width="60" height="60" as="geometry" />
        </mxCell>
        <mxCell id="qCzBzttJJir__ocIeJpY-10" value="" style="sketch=0;outlineConnect=0;fontColor=#232F3E;gradientColor=none;strokeColor=default;fillColor=none;dashed=0;verticalLabelPosition=bottom;verticalAlign=top;align=center;html=1;fontSize=12;fontStyle=0;aspect=fixed;shape=mxgraph.aws4.resourceIcon;resIcon=mxgraph.aws4.container_1;" vertex="1" parent="1">
          <mxGeometry x="180" y="210" width="60" height="60" as="geometry" />
        </mxCell>
        <mxCell id="qCzBzttJJir__ocIeJpY-13" value="" style="endArrow=none;html=1;rounded=0;entryX=0.5;entryY=1;entryDx=0;entryDy=0;" edge="1" parent="1" source="qCzBzttJJir__ocIeJpY-8" target="qCzBzttJJir__ocIeJpY-5">
          <mxGeometry width="50" height="50" relative="1" as="geometry">
            <mxPoint x="451" y="220" as="sourcePoint" />
            <mxPoint x="440" y="180" as="targetPoint" />
          </mxGeometry>
        </mxCell>
        <mxCell id="qCzBzttJJir__ocIeJpY-14" value="" style="endArrow=none;html=1;rounded=0;entryX=0.5;entryY=1;entryDx=0;entryDy=0;" edge="1" parent="1" source="qCzBzttJJir__ocIeJpY-10" target="qCzBzttJJir__ocIeJpY-4">
          <mxGeometry width="50" height="50" relative="1" as="geometry">
            <mxPoint x="314" y="220" as="sourcePoint" />
            <mxPoint x="280" y="180" as="targetPoint" />
          </mxGeometry>
        </mxCell>
        <mxCell id="qCzBzttJJir__ocIeJpY-15" value="" style="endArrow=none;html=1;rounded=0;entryX=0.5;entryY=1;entryDx=0;entryDy=0;" edge="1" parent="1" source="qCzBzttJJir__ocIeJpY-9" target="qCzBzttJJir__ocIeJpY-4">
          <mxGeometry width="50" height="50" relative="1" as="geometry">
            <mxPoint x="190" y="229" as="sourcePoint" />
            <mxPoint x="120" y="180" as="targetPoint" />
          </mxGeometry>
        </mxCell>
        <mxCell id="qCzBzttJJir__ocIeJpY-16" value="" style="endArrow=none;html=1;curved=1;startArrow=classic;startFill=1;endFill=0;fillColor=#fff2cc;strokeColor=#d6b656;entryX=0.75;entryY=1;entryDx=0;entryDy=0;exitX=0.5;exitY=1;exitDx=0;exitDy=0;" edge="1" parent="1" source="qCzBzttJJir__ocIeJpY-36" target="qCzBzttJJir__ocIeJpY-32">
          <mxGeometry width="50" height="50" relative="1" as="geometry">
            <mxPoint x="390" y="400" as="sourcePoint" />
            <mxPoint x="440" y="350" as="targetPoint" />
            <Array as="points">
              <mxPoint x="280" y="390" />
            </Array>
          </mxGeometry>
        </mxCell>
        <mxCell id="qCzBzttJJir__ocIeJpY-17" value="" style="endArrow=none;html=1;curved=1;startArrow=classic;startFill=1;endFill=0;fillColor=#fff2cc;strokeColor=#d6b656;entryX=0.75;entryY=1;entryDx=0;entryDy=0;exitX=0.5;exitY=1;exitDx=0;exitDy=0;" edge="1" parent="1" source="qCzBzttJJir__ocIeJpY-35" target="qCzBzttJJir__ocIeJpY-32">
          <mxGeometry width="50" height="50" relative="1" as="geometry">
            <mxPoint x="430" y="275" as="sourcePoint" />
            <mxPoint x="120" y="260" as="targetPoint" />
            <Array as="points">
              <mxPoint x="230" y="360" />
            </Array>
          </mxGeometry>
        </mxCell>
        <mxCell id="qCzBzttJJir__ocIeJpY-18" value="" style="endArrow=none;html=1;curved=1;startArrow=classic;startFill=1;endFill=0;fillColor=#fff2cc;strokeColor=#d6b656;entryX=0.75;entryY=1;entryDx=0;entryDy=0;exitX=0.5;exitY=1;exitDx=0;exitDy=0;" edge="1" parent="1" source="qCzBzttJJir__ocIeJpY-34" target="qCzBzttJJir__ocIeJpY-32">
          <mxGeometry width="50" height="50" relative="1" as="geometry">
            <mxPoint x="130" y="380" as="sourcePoint" />
            <mxPoint x="120" y="260" as="targetPoint" />
            <Array as="points">
              <mxPoint x="170" y="330" />
            </Array>
          </mxGeometry>
        </mxCell>
        <mxCell id="qCzBzttJJir__ocIeJpY-9" value="" style="sketch=0;outlineConnect=0;fontColor=#232F3E;gradientColor=none;strokeColor=#232F3E;fillColor=none;dashed=0;verticalLabelPosition=bottom;verticalAlign=top;align=center;html=1;fontSize=12;fontStyle=0;aspect=fixed;shape=mxgraph.aws4.resourceIcon;resIcon=mxgraph.aws4.container_1;" vertex="1" parent="1">
          <mxGeometry x="60" y="210" width="60" height="60" as="geometry" />
        </mxCell>
        <mxCell id="qCzBzttJJir__ocIeJpY-22" value="&lt;font style=&quot;font-size: 15px;&quot;&gt;&lt;b&gt;k8s - Cluster 2&lt;/b&gt;&lt;/font&gt;" style="rounded=0;whiteSpace=wrap;html=1;labelPosition=center;verticalLabelPosition=top;align=center;verticalAlign=bottom;dashed=1;fillColor=#dae8fc;strokeColor=#6c8ebf;" vertex="1" parent="1">
          <mxGeometry x="510" y="90" width="470" height="220" as="geometry" />
        </mxCell>
        <mxCell id="qCzBzttJJir__ocIeJpY-23" value="Node 1" style="rounded=1;whiteSpace=wrap;html=1;fillColor=#e1d5e7;strokeColor=#9673a6;" vertex="1" parent="1">
          <mxGeometry x="710" y="110" width="80" height="60" as="geometry" />
        </mxCell>
        <mxCell id="qCzBzttJJir__ocIeJpY-24" value="" style="sketch=0;outlineConnect=0;fontColor=#232F3E;gradientColor=none;strokeColor=#232F3E;fillColor=none;dashed=0;verticalLabelPosition=bottom;verticalAlign=top;align=center;html=1;fontSize=12;fontStyle=0;aspect=fixed;shape=mxgraph.aws4.resourceIcon;resIcon=mxgraph.aws4.container_1;" vertex="1" parent="1">
          <mxGeometry x="770" y="210" width="60" height="60" as="geometry" />
        </mxCell>
        <mxCell id="qCzBzttJJir__ocIeJpY-25" value="" style="endArrow=none;html=1;rounded=0;entryX=0.5;entryY=1;entryDx=0;entryDy=0;" edge="1" parent="1" source="qCzBzttJJir__ocIeJpY-24" target="qCzBzttJJir__ocIeJpY-23">
          <mxGeometry width="50" height="50" relative="1" as="geometry">
            <mxPoint x="590" y="390" as="sourcePoint" />
            <mxPoint x="640" y="340" as="targetPoint" />
          </mxGeometry>
        </mxCell>
        <mxCell id="qCzBzttJJir__ocIeJpY-26" value="" style="sketch=0;outlineConnect=0;fontColor=#232F3E;gradientColor=none;strokeColor=#232F3E;fillColor=none;dashed=0;verticalLabelPosition=bottom;verticalAlign=top;align=center;html=1;fontSize=12;fontStyle=0;aspect=fixed;shape=mxgraph.aws4.resourceIcon;resIcon=mxgraph.aws4.container_1;" vertex="1" parent="1">
          <mxGeometry x="670" y="210" width="60" height="60" as="geometry" />
        </mxCell>
        <mxCell id="qCzBzttJJir__ocIeJpY-27" value="" style="endArrow=none;html=1;rounded=0;entryX=0.5;entryY=1;entryDx=0;entryDy=0;" edge="1" parent="1" source="qCzBzttJJir__ocIeJpY-26" target="qCzBzttJJir__ocIeJpY-23">
          <mxGeometry width="50" height="50" relative="1" as="geometry">
            <mxPoint x="470" y="460" as="sourcePoint" />
            <mxPoint x="520" y="410" as="targetPoint" />
          </mxGeometry>
        </mxCell>
        <mxCell id="qCzBzttJJir__ocIeJpY-28" value="" style="endArrow=none;html=1;curved=1;startArrow=classic;startFill=1;endFill=0;fillColor=#fff2cc;strokeColor=#d6b656;entryX=0.73;entryY=0.991;entryDx=0;entryDy=0;exitX=0.5;exitY=1;exitDx=0;exitDy=0;entryPerimeter=0;" edge="1" parent="1" source="qCzBzttJJir__ocIeJpY-37" target="qCzBzttJJir__ocIeJpY-32">
          <mxGeometry width="50" height="50" relative="1" as="geometry">
            <mxPoint x="540" y="340" as="sourcePoint" />
            <mxPoint x="130" y="269" as="targetPoint" />
            <Array as="points">
              <mxPoint x="370" y="430" />
            </Array>
          </mxGeometry>
        </mxCell>
        <mxCell id="qCzBzttJJir__ocIeJpY-30" value="&lt;b&gt;GET DATA &amp;gt; EXPOSED PORT&lt;/b&gt;" style="text;html=1;strokeColor=none;fillColor=none;align=center;verticalAlign=middle;whiteSpace=wrap;rounded=0;" vertex="1" parent="1">
          <mxGeometry x="355" y="400" width="190" height="30" as="geometry" />
        </mxCell>
        <mxCell id="qCzBzttJJir__ocIeJpY-31" value="" style="endArrow=none;html=1;curved=1;startArrow=classic;startFill=1;endFill=0;fillColor=#e51400;strokeColor=#B20000;entryX=0.5;entryY=1;entryDx=0;entryDy=0;exitX=0.5;exitY=1;exitDx=0;exitDy=0;" edge="1" parent="1" source="qCzBzttJJir__ocIeJpY-32" target="qCzBzttJJir__ocIeJpY-38">
          <mxGeometry width="50" height="50" relative="1" as="geometry">
            <mxPoint x="820" y="430" as="sourcePoint" />
            <mxPoint x="280" y="440" as="targetPoint" />
            <Array as="points">
              <mxPoint x="420" y="490" />
            </Array>
          </mxGeometry>
        </mxCell>
        <mxCell id="qCzBzttJJir__ocIeJpY-32" value="&lt;span style=&quot;color: rgb(35, 47, 62); font-family: Helvetica; font-size: 12px; font-style: normal; font-variant-ligatures: normal; font-variant-caps: normal; font-weight: 400; letter-spacing: normal; orphans: 2; text-align: center; text-indent: 0px; text-transform: none; widows: 2; word-spacing: 0px; -webkit-text-stroke-width: 0px; text-decoration-thickness: initial; text-decoration-style: initial; text-decoration-color: initial; float: none; display: inline !important;&quot;&gt;Prometheus server&lt;/span&gt;" style="text;html=1;align=center;verticalAlign=middle;whiteSpace=wrap;rounded=0;fillColor=none;" vertex="1" parent="1">
          <mxGeometry x="60" y="270" width="60" height="30" as="geometry" />
        </mxCell>
        <mxCell id="qCzBzttJJir__ocIeJpY-34" value="Node exporter" style="text;html=1;strokeColor=none;fillColor=none;align=center;verticalAlign=middle;whiteSpace=wrap;rounded=0;" vertex="1" parent="1">
          <mxGeometry x="180" y="270" width="60" height="30" as="geometry" />
        </mxCell>
        <mxCell id="qCzBzttJJir__ocIeJpY-35" value="Node exporter" style="text;html=1;strokeColor=none;fillColor=none;align=center;verticalAlign=middle;whiteSpace=wrap;rounded=0;" vertex="1" parent="1">
          <mxGeometry x="300" y="270" width="60" height="30" as="geometry" />
        </mxCell>
        <mxCell id="qCzBzttJJir__ocIeJpY-36" value="Node exporter" style="text;html=1;strokeColor=none;fillColor=none;align=center;verticalAlign=middle;whiteSpace=wrap;rounded=0;" vertex="1" parent="1">
          <mxGeometry x="420" y="270" width="60" height="30" as="geometry" />
        </mxCell>
        <mxCell id="qCzBzttJJir__ocIeJpY-37" value="Node exporter" style="text;html=1;strokeColor=none;fillColor=none;align=center;verticalAlign=middle;whiteSpace=wrap;rounded=0;" vertex="1" parent="1">
          <mxGeometry x="670" y="270" width="60" height="30" as="geometry" />
        </mxCell>
        <mxCell id="qCzBzttJJir__ocIeJpY-38" value="Grafana" style="text;html=1;strokeColor=none;fillColor=none;align=center;verticalAlign=middle;whiteSpace=wrap;rounded=0;" vertex="1" parent="1">
          <mxGeometry x="770" y="270" width="60" height="30" as="geometry" />
        </mxCell>
        <mxCell id="qCzBzttJJir__ocIeJpY-39" value="9100" style="text;html=1;strokeColor=none;fillColor=none;align=center;verticalAlign=middle;whiteSpace=wrap;rounded=0;fontStyle=1" vertex="1" parent="1">
          <mxGeometry x="195" y="260" width="30" height="10" as="geometry" />
        </mxCell>
        <mxCell id="qCzBzttJJir__ocIeJpY-40" value="9100" style="text;html=1;strokeColor=none;fillColor=none;align=center;verticalAlign=middle;whiteSpace=wrap;rounded=0;fontStyle=1" vertex="1" parent="1">
          <mxGeometry x="315" y="260" width="30" height="10" as="geometry" />
        </mxCell>
        <mxCell id="qCzBzttJJir__ocIeJpY-41" value="9100" style="text;html=1;strokeColor=none;fillColor=none;align=center;verticalAlign=middle;whiteSpace=wrap;rounded=0;fontStyle=1" vertex="1" parent="1">
          <mxGeometry x="435" y="260" width="30" height="10" as="geometry" />
        </mxCell>
        <mxCell id="qCzBzttJJir__ocIeJpY-42" value="9100:30100" style="text;html=1;strokeColor=none;fillColor=none;align=center;verticalAlign=middle;whiteSpace=wrap;rounded=0;fontStyle=1" vertex="1" parent="1">
          <mxGeometry x="667.5" y="260" width="65" height="10" as="geometry" />
        </mxCell>
        <mxCell id="qCzBzttJJir__ocIeJpY-44" value="8080:30000" style="text;html=1;strokeColor=none;fillColor=none;align=center;verticalAlign=middle;whiteSpace=wrap;rounded=0;fontStyle=1" vertex="1" parent="1">
          <mxGeometry x="57.5" y="260" width="65" height="10" as="geometry" />
        </mxCell>
        <mxCell id="qCzBzttJJir__ocIeJpY-48" value="k8s Monitoring" style="text;html=1;strokeColor=none;fillColor=none;align=center;verticalAlign=middle;whiteSpace=wrap;rounded=0;fontSize=29;fontStyle=1" vertex="1" parent="1">
          <mxGeometry x="280" y="20" width="450" height="30" as="geometry" />
        </mxCell>
      </root>
    </mxGraphModel>
  </diagram>
</mxfile>
